<svg xmlns="http://www.w3.org/2000/svg" viewBox="0 0 120 120" width="120" height="120" role="img" aria-label="QNX Library">
  <defs>
    <radialGradient id="qFill" cx="35%" cy="30%" r="75%">
      <stop offset="0%" stop-color="#e0f2fe"/>
      <stop offset="35%" stop-color="#dbeafe"/>
      <stop offset="70%" stop-color="#60A5FA"/>
      <stop offset="100%" stop-color="#2563EB"/>
    </radialGradient>
    <linearGradient id="bookL" x1="0%" y1="0%" x2="100%" y2="0%">
      <stop offset="0%" stop-color="#93c5fd"/>
      <stop offset="100%" stop-color="#2563EB"/>
    </linearGradient>
    <linearGradient id="bookR" x1="0%" y1="0%" x2="100%" y2="0%">
      <stop offset="0%" stop-color="#2563EB"/>
      <stop offset="100%" stop-color="#f1f5f9"/>
    </linearGradient>
  </defs>
  <!-- Q shape -->
  <path d="M 60 14 A 46 46 0 1 0 92 92 L 102 108 L 86 101 L 74 90 A 46 46 0 0 0 60 14 Z M 60 26 A 34 34 0 1 1 66 80 A 34 34 0 0 1 60 26 Z" fill="url(#qFill)"/>
  <!-- Book -->
  <g transform="translate(30 52)">
    <path d="M 4 6 L 28 0 L 28 30 L 4 36 Z" fill="#0f172a" opacity="0.85"/>
    <path d="M 32 0 L 56 6 L 56 36 L 32 30 Z" fill="#0f172a" opacity="0.85"/>
    <path d="M 5 8 L 27 2.5 L 27 28.5 L 5 33.2 Z" fill="url(#bookL)"/>
    <path d="M 33 2.5 L 55 8 L 55 33.2 L 33 28.5 Z" fill="url(#bookR)"/>
    <path d="M 30 1.2 L 30 30.5" stroke="#0f172a" stroke-width="1.2" opacity="0.7"/>
  </g>
  <!-- Bookmark -->
  <path d="M 68 80 L 86 86 L 84 103 L 77 97 L 70 103 Z" fill="#2563EB" stroke="#60A5FA" stroke-width="0.6"/>
  <!-- Pixels dissolve top-right -->
  <rect x="82" y="18" width="10" height="10" rx="1.5" fill="#60A5FA"/>
  <rect x="88" y="34" width="7" height="7" rx="1.2" fill="#2563EB"/>
  <rect x="96" y="42" width="7" height="7" rx="1.2" fill="#2563EB"/>
  <rect x="78" y="32" width="6" height="6" rx="1" fill="#1E3A8A"/>
  <rect x="84" y="44" width="6" height="6" rx="1" fill="#3b82f6"/>
  <rect x="92" y="52" width="4" height="4" rx="0.8" fill="#60A5FA" opacity="0.9"/>
  <rect x="80" y="52" width="4" height="4" rx="0.8" fill="#60A5FA" opacity="0.7"/>
</svg>
